<svg width="20" height="20" viewBox="0 0 20 20" fill="none" xmlns="http://www.w3.org/2000/svg">
<path d="M9.44614 6.19907C9.26936 5.98693 8.95408 5.95827 8.74194 6.13505C8.5298 6.31184 8.50114 6.62712 8.67792 6.83926L9.44614 6.19907ZM11.8242 9.83375L12.2083 10.1538C12.3628 9.96842 12.3628 9.69908 12.2083 9.51366L11.8242 9.83375ZM8.67792 12.8282C8.50114 13.0404 8.5298 13.3557 8.74194 13.5324C8.95408 13.7092 9.26936 13.6806 9.44614 13.4684L8.67792 12.8282ZM8.67792 6.83926L11.4401 10.1538L12.2083 9.51366L9.44614 6.19907L8.67792 6.83926ZM11.4401 9.51366L8.67792 12.8282L9.44614 13.4684L12.2083 10.1538L11.4401 9.51366ZM10 3C13.866 3 17 6.13401 17 10H18C18 5.58172 14.4183 2 10 2V3ZM17 10C17 13.866 13.866 17 10 17V18C14.4183 18 18 14.4183 18 10H17ZM10 17C6.13401 17 3 13.866 3 10H2C2 14.4183 5.58172 18 10 18V17ZM3 10C3 6.13401 6.13401 3 10 3V2C5.58172 2 2 5.58172 2 10H3Z" fill="#9F9F9F" fill-opacity="0.6"/>
</svg>
