<svg width="129" height="129" viewBox="0 0 129 129" fill="none" xmlns="http://www.w3.org/2000/svg">
<path d="M100.566 38.7537C100.066 38.2499 99.472 37.8501 98.817 37.5772C98.162 37.3043 97.4595 37.1638 96.7499 37.1638C96.0404 37.1638 95.3378 37.3043 94.6828 37.5772C94.0278 37.8501 93.4333 38.2499 92.9337 38.7537L52.8899 78.8512L36.0662 61.9737C35.5474 61.4726 34.9349 61.0785 34.2638 60.814C33.5927 60.5496 32.8761 60.4199 32.1549 60.4324C31.4337 60.4448 30.722 60.5992 30.0604 60.8868C29.3989 61.1743 28.8004 61.5893 28.2993 62.1081C27.7981 62.6269 27.4041 63.2393 27.1396 63.9104C26.8751 64.5815 26.7454 65.2982 26.7579 66.0194C26.7704 66.7406 26.9248 67.4523 27.2123 68.1138C27.4998 68.7754 27.9149 69.3738 28.4337 69.875L49.0737 90.515C49.5733 91.0188 50.1678 91.4186 50.8228 91.6915C51.4778 91.9644 52.1804 92.1049 52.8899 92.1049C53.5995 92.1049 54.302 91.9644 54.957 91.6915C55.612 91.4186 56.2065 91.0188 56.7062 90.515L100.566 46.655C101.112 46.1517 101.547 45.5408 101.845 44.8608C102.143 44.1809 102.297 43.4467 102.297 42.7044C102.297 41.9621 102.143 41.2278 101.845 40.5479C101.547 39.8679 101.112 39.2571 100.566 38.7537Z" fill="#7FD1AE"/>
</svg>
